<svg xmlns="http://www.w3.org/2000/svg" data-name="Layer 1" viewBox="0 0 512 500" x="0px" y="0px"><path d="M416,276.28a54.62,54.62,0,1,0-52.53,0A66.2,66.2,0,0,0,323,337.18v.91H91.57a24,24,0,0,1-24-24v-9.32H298.2a6,6,0,1,0,0-11.93H262.61v-30.3a52.14,52.14,0,0,0-29.42-46.89,43.29,43.29,0,1,0-46.27,0,52.14,52.14,0,0,0-29.42,46.89v30.3H67.56V138.38a24,24,0,0,1,24-24h237a24,24,0,0,1,24,24,6,6,0,0,0,11.94,0,36,36,0,0,0-35.95-35.95h-237a36,36,0,0,0-35.95,35.95V314.07A36,36,0,0,0,91.57,350h86.21v47.62H61.59a6,6,0,1,0,0,11.93H339.48a37.27,37.27,0,0,0,37.23-37.23v-32a6,6,0,0,0-11.93,0v32a25.33,25.33,0,0,1-25.3,25.3H266a34.11,34.11,0,0,1,33.53-28.09H329a6,6,0,0,0,6-6v-26.4A54.22,54.22,0,0,1,389.08,283h1.21a54.22,54.22,0,0,1,54.15,54.15V403.6a6,6,0,1,0,11.94,0V337.18A66.2,66.2,0,0,0,416,276.28ZM178.7,179.08a31.36,31.36,0,1,1,31.35,31.35A31.39,31.39,0,0,1,178.7,179.08Zm-9.27,83.44a40.2,40.2,0,0,1,40.16-40.16h.93a40.2,40.2,0,0,1,40.15,40.16v30.3H169.43Zm61,135.12H189.71V350H230.4Zm92.59-40H299.56a46.05,46.05,0,0,0-45.59,40H242.33V350H323Zm66.69-86.52a42.68,42.68,0,1,1,42.68-42.68A42.72,42.72,0,0,1,389.68,271.1Z"/></svg>